<?xml version="1.0" standalone="no"?><!DOCTYPE svg PUBLIC "-//W3C//DTD SVG 1.1//EN" "http://www.w3.org/Graphics/SVG/1.1/DTD/svg11.dtd"><svg t="1669882264005" class="icon" viewBox="0 0 1024 1024" version="1.1" xmlns="http://www.w3.org/2000/svg" p-id="2630" xmlns:xlink="http://www.w3.org/1999/xlink" width="200" height="200"><path d="M315.31008 273.7152c-10.71104 0-19.41504-8.68352-19.41504-19.41504v-14.88896c0-29.42976-23.8592-53.28896-53.28896-53.28896s-53.28896 23.8592-53.28896 53.28896v14.88896c0 10.71104-8.68352 19.41504-19.41504 19.41504-10.71104 0-19.41504 8.68352-19.41504 19.41504v515.09248c0 10.71104 8.68352 19.41504 19.41504 19.41504h145.38752c10.71104 0 19.41504-8.68352 19.41504-19.41504V293.13024c0-10.71104-8.68352-19.41504-19.39456-19.41504z" fill="#7CE3FF" p-id="2631"></path><path d="M334.70464 808.22272V293.13024c0-10.71104-8.68352-19.41504-19.41504-19.41504s-19.41504-8.68352-19.41504-19.41504v-14.88896c0-2.41664-0.22528-4.79232-0.53248-7.12704-16.384 9.09312-27.46368 26.54208-27.46368 46.61248v14.88896c0 10.71104-8.68352 19.41504-19.41504 19.41504-10.71104 0-19.41504 8.68352-19.41504 19.41504v495.04256h86.2208c10.752-0.02048 19.43552-8.704 19.43552-19.43552z" fill="#B9F0FF" p-id="2632"></path><path d="M315.31008 838.26688H169.92256c-16.56832 0-30.04416-13.47584-30.04416-30.04416V293.13024c0-16.56832 13.47584-30.04416 30.04416-30.04416 4.83328 0 8.76544-3.93216 8.76544-8.76544v-14.88896c0-35.24608 28.672-63.91808 63.91808-63.91808s63.91808 28.672 63.91808 63.91808v14.88896c0 4.83328 3.93216 8.76544 8.76544 8.76544 16.56832 0 30.04416 13.47584 30.04416 30.04416v515.09248c0.02048 16.56832-13.45536 30.04416-30.02368 30.04416z m-72.704-641.47456c-23.51104 0-42.63936 19.12832-42.63936 42.63936v14.88896c0 16.56832-13.47584 30.04416-30.04416 30.04416-4.83328 0-8.76544 3.93216-8.76544 8.76544v515.09248c0 4.83328 3.93216 8.76544 8.76544 8.76544h145.38752c4.83328 0 8.76544-3.93216 8.76544-8.76544V293.13024c0-4.83328-3.93216-8.76544-8.76544-8.76544-16.56832 0-30.04416-13.47584-30.04416-30.04416v-14.88896c0-23.51104-19.1488-42.63936-42.65984-42.63936z" p-id="2633"></path><path d="M150.50752 298.65984s55.23456-25.88672 97.03424-2.92864c41.43104 22.75328 70.41024 12.86144 81.79712 6.90176 2.4576-1.29024 5.36576 0.49152 5.36576 3.2768v45.6704s-38.8096 29.32736-95.39584 0c-51.22048-26.54208-88.80128 1.47456-88.80128 1.47456v-54.39488z" fill="#4C5699" p-id="2634"></path><path d="M329.33888 302.63296c-9.70752 5.07904-32.17408 13.0048-64.24576 1.14688-3.39968 5.632-9.54368 9.40032-16.60928 9.40032-10.71104 0-19.41504 8.68352-19.41504 19.41504v14.29504c3.33824 1.3312 6.7584 2.8672 10.24 4.66944 56.56576 29.32736 95.39584 0 95.39584 0v-45.6704c0-2.74432-2.90816-4.52608-5.36576-3.25632z" fill="#676FB2" p-id="2635"></path><path d="M289.21856 375.31648c-15.62624 0-34.16064-3.60448-54.80448-14.29504-44.29824-22.95808-76.26752-0.36864-77.59872 0.59392l-16.896 12.26752-0.06144-20.84864v-61.15328l6.12352-2.8672c2.4576-1.14688 60.66176-27.89376 106.68032-2.62144 37.29408 20.48 62.58688 11.59168 71.74144 6.79936a14.22336 14.22336 0 0 1 14.0288 0.43008 14.241792 14.241792 0 0 1 6.90176 12.26752v50.95424l-4.21888 3.19488c-1.18784 0.9216-20.70528 15.27808-51.89632 15.27808z m-94.28992-45.8752c14.336 0 31.04768 3.23584 49.29536 12.6976 39.89504 20.6848 69.26336 9.27744 79.85152 3.54304v-29.2864c-16.32256 5.44768-44.89216 8.86784-81.65376-11.30496-28.91776-15.89248-66.6624-4.66944-81.26464 0.75776v29.83936c8.58112-3.31776 20.09088-6.2464 33.77152-6.2464z" p-id="2636"></path><path d="M871.85408 268.73856c-10.71104 0-19.41504-8.68352-19.41504-19.41504v-14.88896c0-29.42976-23.8592-53.28896-53.28896-53.28896s-53.28896 23.8592-53.28896 53.28896v14.88896c0 10.71104-8.68352 19.41504-19.41504 19.41504-10.71104 0-19.41504 8.68352-19.41504 19.41504v515.09248c0 10.71104 8.68352 19.41504 19.41504 19.41504h145.38752c10.71104 0 19.41504-8.68352 19.41504-19.41504V288.13312a19.39456 19.39456 0 0 0-19.39456-19.39456z" fill="#00CE8E" p-id="2637"></path><path d="M891.24864 803.24608V288.13312c0-10.71104-8.68352-19.41504-19.41504-19.41504-10.71104 0-19.41504-8.68352-19.41504-19.41504v-14.88896c0-2.41664-0.22528-4.79232-0.53248-7.12704-16.384 9.09312-27.46368 26.54208-27.46368 46.61248v14.88896c0 10.71104-8.68352 19.41504-19.41504 19.41504s-19.41504 8.68352-19.41504 19.41504v495.04256h86.2208c10.752-0.02048 19.43552-8.704 19.43552-19.41504z" fill="#5FD9B3" p-id="2638"></path><path d="M871.85408 833.29024h-145.38752c-16.56832 0-30.04416-13.47584-30.04416-30.04416V288.13312c0-16.56832 13.47584-30.04416 30.04416-30.04416 4.83328 0 8.76544-3.93216 8.76544-8.76544v-14.88896c0-35.24608 28.672-63.91808 63.91808-63.91808s63.91808 28.672 63.91808 63.91808v14.88896c0 4.83328 3.93216 8.76544 8.76544 8.76544 16.56832 0 30.04416 13.47584 30.04416 30.04416V803.2256c0.02048 16.5888-13.45536 30.06464-30.02368 30.06464z m-72.704-641.49504c-23.51104 0-42.63936 19.12832-42.63936 42.63936v14.88896c0 16.56832-13.47584 30.04416-30.04416 30.04416-4.83328 0-8.76544 3.93216-8.76544 8.76544V803.2256c0 4.83328 3.93216 8.76544 8.76544 8.76544h145.38752c4.83328 0 8.76544-3.93216 8.76544-8.76544V288.13312c0-4.83328-3.93216-8.76544-8.76544-8.76544-16.56832 0-30.04416-13.47584-30.04416-30.04416v-14.88896c0-23.51104-19.1488-42.63936-42.65984-42.63936z" p-id="2639"></path><path d="M707.05152 293.6832s55.23456-25.88672 97.03424-2.92864c41.43104 22.75328 70.41024 12.86144 81.79712 6.90176 2.4576-1.29024 5.36576 0.49152 5.36576 3.2768v45.6704s-38.8096 29.32736-95.39584 0c-51.22048-26.54208-88.80128 1.47456-88.80128 1.47456V293.6832z" fill="#4C5699" p-id="2640"></path><path d="M885.88288 297.65632c-9.70752 5.07904-32.17408 13.0048-64.24576 1.14688-3.39968 5.632-9.54368 9.40032-16.60928 9.40032-10.71104 0-19.41504 8.68352-19.41504 19.41504v14.29504c3.33824 1.3312 6.7584 2.8672 10.24 4.66944 56.56576 29.32736 95.39584 0 95.39584 0v-45.6704c0-2.7648-2.90816-4.54656-5.36576-3.25632z" fill="#676FB2" p-id="2641"></path><path d="M845.76256 370.31936c-15.62624 0-34.16064-3.60448-54.80448-14.29504-44.27776-22.95808-76.26752-0.36864-77.59872 0.59392l-16.896 12.26752-0.06144-20.84864v-61.15328l6.12352-2.8672c2.4576-1.14688 60.66176-27.89376 106.68032-2.62144 37.31456 20.50048 62.60736 11.59168 71.74144 6.79936 4.48512-2.3552 9.728-2.17088 14.04928 0.43008a14.241792 14.241792 0 0 1 6.90176 12.26752v50.95424l-4.21888 3.19488c-1.20832 0.94208-20.72576 15.27808-51.9168 15.27808z m-94.28992-45.8752c14.336 0 31.04768 3.23584 49.29536 12.6976 39.89504 20.6848 69.24288 9.27744 79.85152 3.54304v-29.2864c-16.32256 5.44768-44.89216 8.88832-81.65376-11.30496-28.91776-15.89248-66.6624-4.66944-81.26464 0.75776v29.83936c8.58112-3.29728 20.09088-6.2464 33.77152-6.2464z" p-id="2642"></path><path d="M499.5072 200.62208c-10.71104 0-19.41504-8.68352-19.41504-19.41504v-14.88896c0-29.42976-23.8592-53.28896-53.28896-53.28896s-53.28896 23.8592-53.28896 53.28896v14.88896c0 10.71104-8.68352 19.41504-19.41504 19.41504-10.71104 0-19.41504 8.68352-19.41504 19.41504v515.09248c0 10.71104 8.68352 19.41504 19.41504 19.41504h145.38752c10.71104 0 19.41504-8.68352 19.41504-19.41504V220.01664a19.39456 19.39456 0 0 0-19.39456-19.39456z" fill="#FF8E9E" p-id="2643"></path><path d="M518.90176 735.1296V220.01664c0-10.71104-8.68352-19.41504-19.41504-19.41504-10.71104 0-19.41504-8.68352-19.41504-19.41504V166.2976c0-2.41664-0.22528-4.79232-0.53248-7.12704-16.384 9.09312-27.46368 26.54208-27.46368 46.61248v14.88896c0 10.71104-8.68352 19.41504-19.41504 19.41504-10.71104 0-19.41504 8.68352-19.41504 19.41504v495.04256h86.2208c10.752-0.02048 19.43552-8.704 19.43552-19.41504z" fill="#FFB5C0" p-id="2644"></path><path d="M499.5072 765.17376h-145.38752c-16.56832 0-30.04416-13.47584-30.04416-30.04416V220.01664c0-16.56832 13.47584-30.04416 30.04416-30.04416 4.83328 0 8.76544-3.93216 8.76544-8.76544v-14.88896c0-35.24608 28.672-63.91808 63.91808-63.91808s63.91808 28.672 63.91808 63.91808v14.88896c0 4.83328 3.93216 8.76544 8.76544 8.76544 16.56832 0 30.04416 13.47584 30.04416 30.04416v515.09248c0.02048 16.5888-13.45536 30.06464-30.02368 30.06464zM426.8032 123.67872c-23.51104 0-42.63936 19.12832-42.63936 42.63936v14.88896c0 16.56832-13.47584 30.04416-30.04416 30.04416-4.83328 0-8.76544 3.93216-8.76544 8.76544v515.09248c0 4.83328 3.93216 8.76544 8.76544 8.76544h145.38752c4.83328 0 8.76544-3.93216 8.76544-8.76544V220.01664c0-4.83328-3.93216-8.76544-8.76544-8.76544-16.56832 0-30.04416-13.47584-30.04416-30.04416v-14.88896c0-23.51104-19.1488-42.63936-42.65984-42.63936z" p-id="2645"></path><path d="M334.70464 225.56672s55.23456-25.88672 97.03424-2.92864c41.43104 22.75328 70.41024 12.86144 81.79712 6.90176 2.4576-1.29024 5.36576 0.49152 5.36576 3.2768v45.6704s-38.8096 29.32736-95.39584 0c-51.22048-26.54208-88.80128 1.47456-88.80128 1.47456v-54.39488z" fill="#4C5699" p-id="2646"></path><path d="M513.536 229.53984c-9.70752 5.07904-32.17408 13.0048-64.24576 1.14688-3.39968 5.632-9.54368 9.40032-16.60928 9.40032-10.71104 0-19.41504 8.68352-19.41504 19.41504v14.29504c3.33824 1.3312 6.7584 2.8672 10.24 4.66944 56.56576 29.32736 95.39584 0 95.39584 0v-45.6704c0-2.7648-2.90816-4.54656-5.36576-3.25632z" fill="#676FB2" p-id="2647"></path><path d="M473.41568 302.20288c-15.62624 0-34.16064-3.60448-54.80448-14.29504-44.27776-22.95808-76.26752-0.36864-77.59872 0.59392l-16.896 12.26752-0.06144-20.84864v-61.15328l6.12352-2.8672c2.4576-1.14688 60.66176-27.89376 106.68032-2.62144 37.29408 20.48 62.58688 11.59168 71.74144 6.79936a14.221312 14.221312 0 0 1 14.0288 0.43008 14.241792 14.241792 0 0 1 6.90176 12.26752v50.95424l-4.21888 3.19488c-1.18784 0.94208-20.70528 15.27808-51.89632 15.27808z m-94.28992-45.8752c14.336 0 31.04768 3.23584 49.29536 12.6976 39.89504 20.6848 69.24288 9.27744 79.85152 3.54304v-29.2864c-16.32256 5.46816-44.89216 8.88832-81.65376-11.30496-29.06112-15.95392-66.70336-4.7104-81.26464 0.73728v29.85984c8.58112-3.29728 20.09088-6.2464 33.77152-6.2464z" p-id="2648"></path><path d="M687.65696 333.74208c-10.71104 0-19.41504-8.68352-19.41504-19.41504v-14.88896c0-29.42976-23.8592-53.28896-53.28896-53.28896s-53.28896 23.8592-53.28896 53.28896v14.88896c0 10.71104-8.68352 19.41504-19.41504 19.41504-10.71104 0-19.41504 8.68352-19.41504 19.41504v515.09248c0 10.71104 8.68352 19.41504 19.41504 19.41504h145.38752c10.71104 0 19.41504-8.68352 19.41504-19.41504V353.15712c0-10.71104-8.68352-19.41504-19.39456-19.41504z" fill="#FFCE71" p-id="2649"></path><path d="M707.05152 868.2496V353.15712c0-10.71104-8.68352-19.41504-19.41504-19.41504s-19.41504-8.68352-19.41504-19.41504v-14.88896c0-2.41664-0.22528-4.79232-0.53248-7.12704-16.384 9.09312-27.46368 26.54208-27.46368 46.61248v14.88896c0 10.71104-8.68352 19.41504-19.41504 19.41504-10.71104 0-19.41504 8.68352-19.41504 19.41504v495.04256h86.2208c10.752-0.02048 19.43552-8.704 19.43552-19.43552z" fill="#FCE3A0" p-id="2650"></path><path d="M687.65696 898.29376h-145.38752c-16.56832 0-30.04416-13.47584-30.04416-30.04416V353.15712c0-16.56832 13.47584-30.04416 30.04416-30.04416 4.83328 0 8.76544-3.93216 8.76544-8.76544v-14.88896c0-35.24608 28.672-63.91808 63.91808-63.91808s63.91808 28.672 63.91808 63.91808v14.88896c0 4.83328 3.93216 8.76544 8.76544 8.76544 16.56832 0 30.04416 13.47584 30.04416 30.04416v515.09248c0.02048 16.56832-13.47584 30.04416-30.02368 30.04416z m-72.704-641.47456c-23.51104 0-42.63936 19.12832-42.63936 42.63936v14.88896c0 16.56832-13.47584 30.04416-30.04416 30.04416-4.83328 0-8.76544 3.93216-8.76544 8.76544v515.09248c0 4.83328 3.93216 8.76544 8.76544 8.76544h145.38752c4.83328 0 8.76544-3.93216 8.76544-8.76544V353.15712c0-4.83328-3.93216-8.76544-8.76544-8.76544-16.56832 0-30.04416-13.47584-30.04416-30.04416v-14.88896c-0.02048-23.51104-19.1488-42.63936-42.65984-42.63936z" p-id="2651"></path><path d="M522.8544 358.68672s55.23456-25.88672 97.03424-2.92864c41.43104 22.75328 70.41024 12.86144 81.79712 6.90176 2.4576-1.29024 5.36576 0.49152 5.36576 3.2768v45.6704s-38.8096 29.32736-95.39584 0c-51.22048-26.54208-88.80128 1.47456-88.80128 1.47456v-54.39488z" fill="#4C5699" p-id="2652"></path><path d="M701.68576 362.65984c-9.70752 5.07904-32.17408 13.0048-64.24576 1.14688-3.39968 5.632-9.54368 9.40032-16.60928 9.40032-10.71104 0-19.41504 8.68352-19.41504 19.41504v14.29504c3.33824 1.3312 6.7584 2.8672 10.24 4.66944 56.56576 29.32736 95.39584 0 95.39584 0v-45.6704c0-2.74432-2.90816-4.52608-5.36576-3.25632z" fill="#676FB2" p-id="2653"></path><path d="M661.56544 435.34336c-15.62624 0-34.16064-3.60448-54.80448-14.29504-44.29824-22.95808-76.26752-0.36864-77.59872 0.59392l-16.896 12.26752-0.06144-20.84864v-61.15328l6.12352-2.8672c2.4576-1.14688 60.66176-27.89376 106.68032-2.62144 37.29408 20.50048 62.58688 11.59168 71.74144 6.79936a14.221312 14.221312 0 0 1 14.0288 0.43008 14.241792 14.241792 0 0 1 6.90176 12.26752v50.95424l-4.21888 3.19488c-1.18784 0.9216-20.72576 15.27808-51.89632 15.27808z m-94.28992-45.89568c14.336 0 31.04768 3.23584 49.29536 12.6976 39.89504 20.6848 69.24288 9.27744 79.85152 3.54304v-29.2864c-16.32256 5.44768-44.89216 8.88832-81.65376-11.30496-29.06112-15.95392-66.70336-4.7104-81.26464 0.73728v29.85984c8.58112-3.29728 20.09088-6.2464 33.77152-6.2464z" p-id="2654"></path><path d="M309.39136 865.66912v-198.10304H260.7104c-38.87104 0-70.38976-31.51872-70.38976-70.38976 0-38.87104 31.51872-70.38976 70.38976-70.38976h48.68096v-78.19264c0-25.02656 20.2752-45.30176 45.30176-45.30176H148.76672c-25.02656 0-45.30176 20.2752-45.30176 45.30176v417.0752c0 25.02656 20.2752 45.30176 45.30176 45.30176h205.90592c-25.00608 0-45.28128-20.29568-45.28128-45.30176z" fill="#53A3EC" p-id="2655"></path><path d="M875.23328 403.27168H354.69312c-25.02656 0-45.30176 20.2752-45.30176 45.30176v78.19264h453.91872c38.87104 0 70.38976 31.51872 70.38976 70.38976 0 38.87104-31.51872 70.38976-70.38976 70.38976H309.39136v198.10304c0 25.02656 20.2752 45.30176 45.30176 45.30176h520.54016c25.02656 0 45.30176-20.2752 45.30176-45.30176V448.57344c0-25.00608-20.29568-45.30176-45.30176-45.30176z" fill="#64B3FB" p-id="2656"></path><path d="M875.23328 921.6H334.70464c-5.87776 0-10.62912-4.77184-10.62912-10.62912 0-5.87776 4.77184-10.62912 10.62912-10.62912h540.50816c19.10784 0 34.65216-15.54432 34.65216-34.65216V448.57344c0-19.10784-15.54432-34.65216-34.65216-34.65216H148.76672c-19.10784 0-34.65216 15.54432-34.65216 34.65216v417.0752c0 19.10784 15.54432 34.65216 34.65216 34.65216h86.60992c5.87776 0 10.62912 4.77184 10.62912 10.62912 0 5.87776-4.77184 10.62912-10.62912 10.62912H148.76672c-30.84288 0-55.93088-25.088-55.93088-55.93088V448.57344c0-30.84288 25.088-55.93088 55.93088-55.93088h726.44608c30.84288 0 55.93088 25.088 55.93088 55.93088v417.0752c0.02048 30.86336-25.06752 55.95136-55.9104 55.95136z" p-id="2657"></path><path d="M763.31008 678.1952H260.7104c-44.68736 0-81.03936-36.352-81.03936-81.01888 0-44.68736 36.352-81.01888 81.03936-81.01888h502.59968c16.24064 0 31.90784 4.79232 45.30176 13.84448 4.87424 3.29728 6.144 9.91232 2.8672 14.76608-3.2768 4.87424-9.89184 6.144-14.76608 2.8672-9.87136-6.67648-21.42208-10.19904-33.40288-10.19904H260.7104c-32.95232 0-59.76064 26.80832-59.76064 59.76064s26.80832 59.76064 59.76064 59.76064h502.59968c32.95232 0 59.76064-26.80832 59.76064-59.76064 0-2.90816-0.2048-5.8368-0.6144-8.66304-0.83968-5.81632 3.1744-11.22304 8.99072-12.06272 5.81632-0.83968 11.22304 3.1744 12.06272 8.99072 0.55296 3.85024 0.83968 7.80288 0.83968 11.73504-0.02048 44.6464-36.37248 80.9984-81.03936 80.9984z" p-id="2658"></path><path d="M360.01792 806.5024a42.94656 33.36192 0 1 0 85.89312 0 42.94656 33.36192 0 1 0-85.89312 0Z" fill="#FFB5C0" p-id="2659"></path><path d="M417.5872 784.52736c-5.87776 0-10.62912-4.77184-10.62912-10.62912v-22.75328c0-5.87776 4.77184-10.62912 10.62912-10.62912s10.62912 4.77184 10.62912 10.62912v22.75328c0.02048 5.85728-4.75136 10.62912-10.62912 10.62912z" p-id="2660"></path><path d="M578.08896 806.5024a42.94656 33.36192 0 1 0 85.89312 0 42.94656 33.36192 0 1 0-85.89312 0Z" fill="#FFB5C0" p-id="2661"></path><path d="M606.49472 784.52736c-5.87776 0-10.62912-4.77184-10.62912-10.62912v-22.75328c0-5.87776 4.77184-10.62912 10.62912-10.62912 5.87776 0 10.62912 4.77184 10.62912 10.62912v22.75328c0 5.85728-4.75136 10.62912-10.62912 10.62912zM513.3312 790.58944c-16.05632 0-28.7744-7.53664-35.1232-13.9264-4.13696-4.15744-4.11648-10.89536 0.04096-15.0528 4.13696-4.11648 10.83392-4.11648 14.99136-0.02048 1.92512 1.8432 18.92352 16.97792 43.35616-1.00352a10.631168 10.631168 0 1 1 12.61568 17.12128c-12.84096 9.48224-25.10848 12.88192-35.88096 12.88192z" p-id="2662"></path></svg>