<?xml version="1.0" standalone="no"?><!DOCTYPE svg PUBLIC "-//W3C//DTD SVG 1.1//EN" "http://www.w3.org/Graphics/SVG/1.1/DTD/svg11.dtd"><svg t="1669854732088" class="icon" viewBox="0 0 1024 1024" version="1.1" xmlns="http://www.w3.org/2000/svg" p-id="1090" xmlns:xlink="http://www.w3.org/1999/xlink" width="200" height="200"><path d="M691.54 336H110.8a142.3 142.3 0 0 0-0.94 16.28v330.14c0 78 63.46 141.47 141.47 141.47h518.74c3.09 0 6.16-0.11 9.21-0.31V423.1c0-48.97-38.39-87.1-87.74-87.1z" fill="#BBF2FF" p-id="1091"></path><path d="M771.37 205.47c78 0 141.47 63.46 141.47 141.47v330.11c0 78-63.46 141.47-141.47 141.47H252.63c-78 0-141.47-63.46-141.47-141.47v-330.1c0-78 63.46-141.47 141.47-141.47h518.74m0-47.16H252.63C148.45 158.32 64 242.77 64 346.95v330.1c0 104.18 84.45 188.63 188.63 188.63h518.74c104.18 0 188.63-84.45 188.63-188.63v-330.1c0-104.18-84.45-188.63-188.63-188.63z" fill="#2087E7" p-id="1092"></path><path d="M507.32 644.51c-10.1 0-18.42 3-25.56 10.11-7.13 6.54-10.1 14.86-10.1 25s3 18.42 10.1 25.56a37.38 37.38 0 0 0 51.11 0c7.14-6.54 10.7-14.86 10.7-25.56a34 34 0 0 0-10.1-25c-7.14-7.13-16-10.11-26.15-10.11zM516 290.81c-41.25 0-73.89 12.89-96.91 38.22-17.75 18.63-28.7 42.63-32.53 71.31a27.55 27.55 0 0 0 6.62 21.81 27.65 27.65 0 0 0 48.38-14.78c2.15-17 7.32-30.48 15.94-41.47 12-16.49 30.42-24.52 56.3-24.52 22.17 0 38.41 5.7 49.74 17.53 11.26 11.25 17 27.06 17 47 0 14-5 27-15.33 39.93-3.07 4.11-9.74 10.76-17.91 18.93-30.3 26.94-49 48.47-57.07 65.81-7 14.52-10.5 31.53-10.5 50.53v1.08c-0.1 1.51 0 3.11 0 4.63v13h0.13c0.07 1.28-0.06 2.47 0 3.76a27.46 27.46 0 0 0 11.14 19.9 28.64 28.64 0 0 0 17 5.59 28.34 28.34 0 0 0 5.86-0.61 27.72 27.72 0 0 0 21.85-28.67h0.07v-0.7-0.18a1 1 0 0 1 0-0.13V581.1c0-14 3.14-26.21 9.7-37.31 5.37-9.66 13.41-19 24.65-28.72 23.12-20.51 39.19-35.8 45.41-43.3 14.7-19.38 22.16-42.29 22.16-68.08 0-34.49-11-62.12-32.8-82.11-22.43-20.72-51.51-30.78-88.9-30.78z" fill="#2087E7" p-id="1093"></path></svg>