<?xml version="1.0" standalone="no"?><!DOCTYPE svg PUBLIC "-//W3C//DTD SVG 1.1//EN" "http://www.w3.org/Graphics/SVG/1.1/DTD/svg11.dtd"><svg t="1669949757373" class="icon" viewBox="0 0 1024 1024" version="1.1" xmlns="http://www.w3.org/2000/svg" p-id="9188" xmlns:xlink="http://www.w3.org/1999/xlink" width="200" height="200"><path d="M512 981.333333C252.8 981.333333 42.666667 771.2 42.666667 512S252.8 42.666667 512 42.666667s469.333333 210.133333 469.333333 469.333333-210.133333 469.333333-469.333333 469.333333zM303.616 435.114667c-10.581333 16.981333-20.48 35.498667-29.482667 55.637333a731.221333 731.221333 0 0 1-55.424 102.741333 31.957333 31.957333 0 0 0-1.706666 32.597334 333.610667 333.610667 0 0 0 295.253333 179.584 331.392 331.392 0 0 0 243.584-106.666667 32.554667 32.554667 0 0 0 7.04-31.573333c-12.288-40.021333-27.008-76.8-37.674667-110.805334 8.576-1.578667 16.810667-5.290667 23.808-11.093333l28.416-23.466667a51.754667 51.754667 0 0 0 7.381334-72.533333l-0.64-0.853333-0.981334-1.152a52.309333 52.309333 0 0 0-53.205333-16.384c19.882667-21.76 50.773333-31.786667 71.424-36.266667a9.813333 9.813333 0 0 0 2.773333-17.962667c-41.728-24.832-91.392-15.061333-91.392-15.061333s-25.130667-50.773333-114.986666-76.074667c-40.192-11.349333-93.013333-7.893333-146.346667 15.786667a147.968 147.968 0 0 0-9.301333 0.213333 145.664 145.664 0 0 1-66.986667-39.466666l-4.138667-4.224a76.8 76.8 0 0 0-107.776-2.645334 77.44 77.44 0 0 0-1.408 109.696l5.12 5.162667c17.493333 18.005333 30.08 40.405333 36.693334 64.853333z" fill="#FF7C00" p-id="9189"></path><path d="M547.242667 529.024a137.216 137.216 0 0 0 137.813333-17.408 30.506667 30.506667 0 0 1 10.368-30.378667l28.416-23.466666a31.018667 31.018667 0 0 1 43.733333 4.309333l0.64 0.853333a30.421333 30.421333 0 0 1-4.394666 42.666667l-28.416 23.466667a31.018667 31.018667 0 0 1-27.221334 6.186666 170.581333 170.581333 0 0 1-106.922666 37.546667h-6.229334a170.24 170.24 0 0 1-73.557333-19.754667 123.221333 123.221333 0 0 1-70.826667 22.314667c-68.949333 0-124.8-56.533333-124.8-126.293333 0-3.669333 0.128-7.338667 0.426667-10.965334a170.581333 170.581333 0 0 0-44.117333-82.773333l-5.12-5.12a55.893333 55.893333 0 0 1 0.768-79.189333 55.466667 55.466667 0 0 1 78.08 2.090666l4.010666 4.053334c22.058667 22.784 49.92 38.698667 80.341334 46.122666 3.413333-0.298667 6.869333-0.426667 10.368-0.426666 68.906667 0.085333 124.714667 56.576 124.8 126.250666 0 30.293333-10.581333 58.112-28.16 79.914667z" fill="#FF7C00" p-id="9190"></path></svg>