<?xml version="1.0" standalone="no"?><!DOCTYPE svg PUBLIC "-//W3C//DTD SVG 1.1//EN" "http://www.w3.org/Graphics/SVG/1.1/DTD/svg11.dtd"><svg t="1670054990710" class="icon" viewBox="0 0 1024 1024" version="1.1" xmlns="http://www.w3.org/2000/svg" p-id="1376" xmlns:xlink="http://www.w3.org/1999/xlink" width="200" height="200"><path d="M661.767 458.234c33.288-15.442 65.611-31.038 96.008-46.366 30.393-15.547 54.731-27.020 72.691-34.202 18.009-7.019 32.431-10.773 43.369-10.773 18.009 0 33.558 5.897 46.747 18.223 13.189 12.009 19.725 27.288 19.725 45.242 0 10.292-3.27 21.122-9.702 32.162-6.38 11.095-13.296 18.223-20.478 21.334-66.58 26.156-139.962 45.403-219.888 57.306 14.529 13.189 32.325 31.143 53.498 53.229 21.17 22.41 32.325 34.202 33.183 35.698 7.825 10.773 18.599 24.225 32.54 40.211 13.944 16.081 23.586 28.516 29.003 37.577 5.411 9.169 8.147 19.943 8.147 32.859 0 16.512-6.167 31.038-18.601 43.369-12.274 12.436-28.414 18.655-48.030 18.655s-41.543-15.333-66.203-45.671c-24.495-30.339-56.179-85.18-94.883-164.14-39.189 71.082-65.615 118.201-78.909 140.931-13.454 22.514-26.372 39.72-38.701 51.407-12.436 11.578-26.536 17.479-42.618 17.479-19.084 0-35.003-6.541-47.763-19.727-12.385-13.189-18.867-27.393-18.867-42.242 0-13.935 2.521-24.498 7.719-31.63 47.493-64.492 96.974-120.773 148.702-168.003-43.369-6.809-82.015-14.368-116.055-22.514-34.096-8.415-70.33-20.374-108.442-36.448-6.269-3.164-12.274-10.292-18.226-21.334-5.789-10.936-8.682-21.23-8.682-30.499 0-17.957 6.541-33.187 19.727-45.242 13.189-12.274 28.25-18.223 45.35-18.223 12.436 0 27.823 3.752 46.475 11.204 18.491 7.559 42.074 18.331 70.707 32.486 28.682 14.204 61.379 30.074 97.994 47.657-6.702-32.54-12.274-69.902-16.671-111.821-4.394-42.078-6.539-70.865-6.539-86.41 0-19.084 6.058-35.328 18.118-49.156 12.274-13.669 27.71-20.478 46.849-20.478 18.763 0 33.934 6.811 46.103 20.478 12.222 13.833 18.223 31.949 18.223 54.677 0 6.167-1.019 18.386-2.788 36.829-1.61 18.386-4.394 40.473-7.665 66.47-3.378 26.051-7.124 55.966-11.146 89.41z" fill="#d81e06" p-id="1377"></path></svg>